<svg width="24" height="24" viewBox="0 0 24 24" fill="none" xmlns="http://www.w3.org/2000/svg">
  <path d="M7 14C5.9 14 5 13.1 5 12C5 10.9 5.9 10 7 10C8.1 10 9 10.9 9 12C9 13.1 8.1 14 7 14ZM21 12C21 10.9 20.1 10 19 10C17.9 10 17 10.9 17 12C17 13.1 17.9 14 19 14C20.1 14 21 13.1 21 12ZM16 12C16 13.66 14.66 15 13 15C11.34 15 10 13.66 10 12C10 10.34 11.34 9 13 9C14.66 9 16 10.34 16 12ZM18 12C18 13.66 19.34 15 21 15C22.66 15 24 13.66 24 12C24 10.34 22.66 9 21 9C19.34 9 18 10.34 18 12Z" fill="#7c3aed" fill-opacity="0.8"/>
  <path d="M12 22V9M12 22H17M12 22H7" stroke="#7c3aed" stroke-width="2" stroke-linecap="round"/>
</svg>
